<?xml version="1.0" encoding="UTF-8"?>
<svg id="Layer_1" data-name="Layer 1" xmlns="http://www.w3.org/2000/svg" viewBox="0 0 512 100">
  <defs>
    <style>
      .cls-1 {
        fill: #111828;
      }

      .cls-1, .cls-2 {
        stroke-width: 0px;
      }

      .cls-2 {
        fill: #19b7a5;
      }
    </style>
  </defs>
  <g>
    <g>
      <path class="cls-2" d="M78.94,56.63c-6.46,3-12.7,5.68-18.56,8.04-4.31,1.72-8.41,3.26-12.26,4.59-17.24,5.98-29.34,7.9-31.17,4.21-2.08-4.19,9.65-14.56,28.79-26.47,0,0,0,0,0,0,.02-.1.03-.2.04-.3h0s0,0,0,0C18.81,62.65,1.59,77.02,4.29,82.46c2.46,4.96,20.81,1.26,46-8.37,0,0,0,0,0,0,3.92-1.5,8.01-3.14,12.23-4.91,0,0,0,0,0,0,5.99-2.52,12.25-5.31,18.67-8.34-1.03-1.21-1.81-2.64-2.25-4.21Z"/>
      <path class="cls-2" d="M163.95,3.34c-2.68-5.4-24.22-.52-52.91,11.09,0,0,0,0,0,0,.03.01.06.03.1.05,21.61-8.32,37.45-11.54,39.56-7.28,1.86,3.76-7.38,12.49-23.11,22.84,0,0,0,0,0,0-3.41,2.24-7.13,4.56-11.1,6.92,0,0,0,0,0,0-5.44,3.24-11.36,6.55-17.65,9.85.94,1.26,1.63,2.72,1.97,4.3,6.3-3.29,12.3-6.59,17.92-9.83,0,0,0,0,0,0,3.96-2.29,7.75-4.55,11.3-6.78,0,0,0,0,0,0,22.56-14.06,36.36-26.24,33.92-31.16Z"/>
    </g>
    <g>
      <path class="cls-1" d="M131.95,39.19c-3.69,2.29-7.57,4.6-11.61,6.92.58,2.38.88,4.87.88,7.43,0,17.36-14.07,31.43-31.43,31.43-9.83,0-18.61-4.51-24.38-11.59-1.07-1.32-2.04-2.73-2.9-4.21,0,0,0,0,0,0,0,0,0,0,0,0-4.22,1.77-8.3,3.42-12.23,4.91,0,0,0,0,0,0,.78,1.51,1.65,2.97,2.6,4.37,8,11.83,21.54,19.6,36.9,19.6,24.59,0,44.52-19.93,44.52-44.52,0-5.02-.83-9.85-2.36-14.35Z"/>
      <path class="cls-1" d="M124.7,25.92c-2.41-3.04-5.21-5.76-8.32-8.08-1.66-1.24-3.41-2.37-5.24-3.37,0,0,0,0,0,0-.03-.01-.06-.03-.1-.05,0,0,0,0,0,0-2.01-1.1-4.11-2.04-6.29-2.82-4.67-1.67-9.71-2.58-14.96-2.58-19.86,0-36.68,13.01-42.42,30.96-.69,2.17-1.22,4.4-1.58,6.7h0c-.01.1-.03.2-.04.3h0c-.3,2.03-.46,4.1-.47,6.21,0,.11,0,.22,0,.34,0,3.78.47,7.45,1.36,10.95,3.8-1.32,7.93-2.86,12.37-4.64-.41-2.04-.63-4.15-.63-6.31,0-3.13.46-6.15,1.31-9,.18-.62.38-1.23.6-1.83,4.41-12.02,15.96-20.6,29.51-20.6,9.46,0,17.95,4.19,23.72,10.8,1.1,1.26,2.09,2.61,2.98,4.03,3.98-2.36,7.69-4.68,11.1-6.92,0,0,0,0,0,0-.88-1.43-1.85-2.8-2.89-4.11Z"/>
      <circle class="cls-1" cx="89.79" cy="53.55" r="8.29" transform="translate(-11.19 26.48) rotate(-15.8)"/>
    </g>
  </g>
  <g>
    <path class="cls-1" d="M159.63,33.01l1.86,10.88c3.09-7.54,8.66-11.38,20.28-11.38h1.24v12.37h-1.86c-10.14,0-18.67,3.83-18.67,18.67v33.27h-13.48v-63.81h10.64Z"/>
    <path class="cls-1" d="M208.35,6.3v34.63c5.81-7.91,14.1-9.52,19.91-9.52,19.91,0,31.41,15.95,31.41,33.76s-12.24,32.77-31.41,32.77c-8.53,0-16.82-3.09-20.9-11.01l-1.73,9.89h-10.88V6.3h13.6ZM206.87,64.67c0,12.49,8.41,21.52,19.79,21.52s19.29-8.53,19.29-21.52-8.04-21.52-19.29-21.52-19.79,9.4-19.79,21.52Z"/>
    <polygon class="cls-1" points="288.74 32.52 288.74 96.82 275.63 96.82 275.63 44.27 268.45 41.92 268.45 32.52 288.74 32.52"/>
    <path class="cls-1" d="M345.5,10.26c14.22,0,25.85,12.86,25.85,26.84s-11.5,27.08-25.48,27.08h-24.11v32.65h-13.6V10.26h37.35ZM321.75,51.31h23.74c6.68,0,12.24-7.3,12.24-14.22,0-9.65-7.79-13.97-16.2-13.97h-19.79v28.2Z"/>
    <path class="cls-1" d="M407.7,31.4c15.58,0,24.49,6.93,24.49,21.15v29.8c0,1.98,1.11,2.47,3.21,2.47.99,0,3.09-.12,5.07-.37v10.64c-.62.37-5.19,1.73-9.03,1.73-4.95,0-10.63-2.23-10.63-8.29v-1.11c-3.22,6.68-10.64,10.51-20.53,10.51-12.74,0-23-7.17-23-20.65,0-14.72,12.37-20.03,27.45-20.03,4.45,0,11.75.49,14.72.99v-3.59c0-10.02-6.55-12.24-13.97-12.24-5.19,0-14.1,1.11-20.16,2.6l-2.47-9.52c5.19-1.73,15.58-4.08,24.86-4.08ZM406.59,66.65c-7.42,0-17.07,1.36-17.07,10.39,0,7.05,5.94,10.26,12.86,10.26,8.53,0,17.07-5.32,17.07-12.74v-6.68c-2.35-.62-7.91-1.24-12.86-1.24Z"/>
    <path class="cls-1" d="M461.25,32.52l15.21,23.13h.25l15.21-23.13h15.83l-22.63,32.15,22.88,32.15h-15.71l-15.58-23.25h-.25l-15.58,23.25h-15.71l23-32.15-22.75-32.15h15.83Z"/>
  </g>
</svg>